<svg xmlns="http://www.w3.org/2000/svg" class="ico-talk icon sprite-icons" data-v-a1b21a74="">
<path xmlns="http://www.w3.org/2000/svg" fill="#222" fill-rule="evenodd" d="M1 10.752C1 5.365 5.7 1 11.498 1 17.293 1 22 5.365 22 10.752c0 5.387-4.7 9.755-10.495 9.755a11.04 11.04 0 01-2.308-.238l-3.763 2.684a.174.174 0 01-.169.013.161.161 0 01-.064-.06.17.17 0 01-.024-.084v-4.28A9.524 9.524 0 011 10.752zm17.049-1.129a2.052 2.052 0 00-.721-.46c-.27-.1-.56-.142-.847-.123a2.119 2.119 0 00-1.028.251 2.45 2.45 0 00-.577.423V6.58h-1.487v8.366h1.474V11.81a2.11 2.11 0 01.107-.7c.06-.187.156-.361.282-.514.114-.132.255-.239.414-.313.156-.073.326-.11.498-.11a.971.971 0 01.706.248c.192.258.28.58.244.9v3.618h1.477v-3.562a2.525 2.525 0 00-.542-1.753zm-8.296-.865a2.434 2.434 0 00-1.375-.451 2.53 2.53 0 00.004 5.054 2.45 2.45 0 002.27-1.615h1.568a4.111 4.111 0 01-4.461 3.167 4.103 4.103 0 01-3.646-4.079c0-1.01.372-1.983 1.044-2.736a4.109 4.109 0 015.437-.611 4.11 4.11 0 011.626 2.434h-1.587a2.443 2.443 0 00-.88-1.163z" clip-rule="evenodd"/>
</svg>