<svg xmlns="http://www.w3.org/2000/svg" class="ico-instagram icon sprite-icons" data-v-a1b21a74="">
<path xmlns="http://www.w3.org/2000/svg" fill="#000" d="M12 3.802c2.67 0 2.986.01 4.04.058.976.045 1.505.207 1.858.344.466.182.8.398 1.15.748.35.35.566.683.747 1.15.137.353.3.882.345 1.857.048 1.054.058 1.37.058 4.04 0 2.671-.01 2.987-.058 4.042-.045.975-.208 1.504-.345 1.857a3.1 3.1 0 01-.748 1.15 3.09 3.09 0 01-1.15.747c-.352.137-.881.3-1.856.345-1.055.048-1.371.058-4.041.058-2.67 0-2.987-.01-4.041-.058-.975-.045-1.504-.208-1.857-.345a3.092 3.092 0 01-1.15-.748 3.092 3.092 0 01-.748-1.15c-.137-.352-.3-.881-.344-1.856-.048-1.055-.058-1.371-.058-4.041 0-2.67.01-2.986.058-4.041.045-.975.207-1.504.344-1.857.182-.467.398-.8.748-1.15.35-.35.683-.567 1.15-.748.353-.137.882-.3 1.857-.344 1.055-.048 1.37-.058 4.04-.058zM12 2c-2.716 0-3.057.012-4.123.06-1.064.049-1.791.218-2.428.465a4.901 4.901 0 00-1.77 1.154 4.888 4.888 0 00-1.154 1.77c-.247.637-.416 1.364-.465 2.428C2.012 8.943 2 9.284 2 12s.012 3.056.06 4.123c.049 1.064.218 1.79.465 2.427a4.896 4.896 0 001.154 1.771 4.91 4.91 0 001.77 1.154c.637.247 1.364.416 2.428.465 1.067.048 1.407.06 4.123.06s3.057-.012 4.123-.06c1.064-.049 1.792-.218 2.428-.465a4.901 4.901 0 001.77-1.154 4.884 4.884 0 001.154-1.77c.247-.637.417-1.364.465-2.428.049-1.067.06-1.407.06-4.123s-.011-3.057-.06-4.123c-.048-1.064-.218-1.792-.465-2.428a4.885 4.885 0 00-1.153-1.77 4.887 4.887 0 00-1.771-1.154c-.637-.247-1.364-.416-2.428-.465C15.056 2.012 14.716 2 12 2z"/>
<path xmlns="http://www.w3.org/2000/svg" fill="#000" d="M12 6.865a5.135 5.135 0 100 10.27 5.135 5.135 0 000-10.27zm0 8.468a3.333 3.333 0 110-6.667 3.333 3.333 0 010 6.667zm5.338-7.471a1.2 1.2 0 100-2.4 1.2 1.2 0 000 2.4z"/>
</svg>