<svg width="34" height="34" viewBox="0 0 34 34" fill="none" xmlns="http://www.w3.org/2000/svg">
<circle cx="17" cy="17" r="17" fill="#0FDE70"/>
<path d="M16.75 5.72169C16.9047 5.63237 17.0953 5.63237 17.25 5.72169L26.6423 11.1443C26.797 11.2337 26.8923 11.3987 26.8923 11.5774V22.4226C26.8923 22.6013 26.797 22.7663 26.6423 22.8557L17.25 28.2783C17.0953 28.3676 16.9047 28.3676 16.75 28.2783L7.3577 22.8557C7.203 22.7663 7.1077 22.6013 7.1077 22.4226V11.5774C7.1077 11.3987 7.203 11.2337 7.3577 11.1443L16.75 5.72169Z" fill="white" stroke="#222222"/>
<path d="M7 11.5L16.4855 17.1913C16.8022 17.3813 17.1978 17.3813 17.5145 17.1913L27 11.5" stroke="#222222"/>
<path d="M17 17.5V28" stroke="#222222"/>
<path d="M19.0038 20.6206L21.098 17.0189C21.1039 17.0071 21.1159 17.0011 21.1279 17.004L24.1787 17.5052C24.2028 17.508 24.2119 17.5406 24.1939 17.5584L21.972 19.8085C21.9541 19.8264 21.9632 19.8559 21.9872 19.8617L24.6747 20.302C24.7017 20.3049 24.7078 20.3404 24.6869 20.3552L19.9532 24.0009C19.9263 24.0217 19.8931 23.9893 19.911 23.9596L21.4664 21.1061C21.4783 21.0883 21.4662 21.0646 21.4452 21.0618L19.028 20.6649C19.004 20.662 18.9949 20.6384 19.0038 20.6206Z" fill="#00D262"/>
<path d="M21.9883 17.1478L21.1285 17.004C21.1165 17.0011 21.1046 17.0071 21.0986 17.0189L19.0051 20.6113C18.9932 20.6291 19.0053 20.6526 19.0263 20.6585L19.859 20.7994L21.9883 17.1478Z" fill="#00B856"/>
<path d="M19.9588 24.0008C19.9321 24.0215 19.8992 23.9893 19.917 23.9598L21.4615 21.1236C21.4704 21.1089 21.4644 21.0971 21.4525 21.0854L22.3023 21.2265L19.9588 24.0008Z" fill="#00B856"/>
</svg>
