<svg data-v-677160c2="" xmlns="http://www.w3.org/2000/svg" class="logo-social icon sprite-icons">
<path xmlns="http://www.w3.org/2000/svg" d="M12.261 7.212a3.901 3.901 0 001.487-.45 3.822 3.822 0 001.182-.992 4.554 4.554 0 001.067-2.78 2.172 2.172 0 000-.387 4.37 4.37 0 00-2.903 1.547 4.288 4.288 0 00-1.067 2.686 1.216 1.216 0 000 .355l.235.021zM9.134 22.495c1.217 0 1.75-.826 3.266-.826s1.879.805 3.202.805c1.324 0 2.21-1.244 3.042-2.457A11.143 11.143 0 0020 17.205a4.436 4.436 0 01-1.927-1.623 4.303 4.303 0 01-.71-2.39c.005-.757.203-1.5.576-2.163a4.576 4.576 0 011.56-1.632 4.55 4.55 0 00-1.688-1.466 4.658 4.658 0 00-2.198-.5c-1.494 0-2.711.91-3.469.91s-1.91-.857-3.202-.857C6.487 7.484 4 9.574 4 13.39a12.36 12.36 0 002.06 6.575c1.003 1.39 1.847 2.53 3.074 2.53z" fill="#000"/>
</svg>
