<svg data-v-3584e297="" xmlns="http://www.w3.org/2000/svg" class="ico-help icon sprite-icons">
<path fill="#fff" d="M0 .5h16v16H0z"/><circle cx="8" cy="8.5" r="8" fill="#D3D3D3"/>
<path d="M7.086 9.846h1.213v-.334c0-.592.217-.908.972-1.354.774-.463 1.231-1.101 1.231-2.004v-.006c0-1.26-1.049-2.173-2.59-2.173-1.7 0-2.578 1.007-2.654 2.267l-.006.07h1.213l.006-.052c.064-.715.568-1.207 1.377-1.207.797 0 1.324.48 1.324 1.148v.006c0 .598-.252.938-.961 1.365-.803.48-1.149 1.008-1.13 1.805l.005.469zm.615 2.719c.44 0 .774-.335.774-.762a.75.75 0 00-.774-.756.753.753 0 00-.767.756c0 .427.34.761.767.761z" fill="#fff"/></svg>



